HIERARCHY
ROOT Hips
{
	OFFSET	0	0	0
	CHANNELS 6  Xposition Yposition Zposition Xrotation Yrotation Zrotation
	JOINT Spine
	{
		OFFSET	0	6.43035	1.29592
		CHANNELS 3  Xrotation Yrotation Zrotation
		JOINT Spine1
		{
			OFFSET	0	11.0515	-1.97348
			CHANNELS 3  Xrotation Yrotation Zrotation
			JOINT Spine2
			{
				OFFSET	0	8.37743	0.897934
				CHANNELS 3  Xrotation Yrotation Zrotation
				JOINT Spine3
				{
					OFFSET	0	10.0253	2.97996
					CHANNELS 3  Xrotation Yrotation Zrotation
					JOINT Spine4
					{
						OFFSET	0	14.8406	-1.51958
						CHANNELS 3  Xrotation Yrotation Zrotation
						JOINT Neck
						{
							OFFSET	0	7.0848	-4.96331
							CHANNELS 3  Xrotation Yrotation Zrotation
							JOINT Head
							{
								OFFSET	0	8.50571	-2.54579
								CHANNELS 3  Xrotation Yrotation Zrotation
								End Site
								{
									OFFSET	0	17.7416	-0.858465
								}
							}
						}
					}
					JOINT LeftShoulder
					{
						OFFSET	-4.26272	18.0376	-8.50571
						CHANNELS 3  Xrotation Yrotation Zrotation
						JOINT LeftArm
						{
							OFFSET	-9.26857	-2.54579	3.26613
							CHANNELS 3  Xrotation Yrotation Zrotation
							JOINT LeftForeArm
							{
								OFFSET	-28.2392	-1.28889	2.01568
								CHANNELS 3  Xrotation Yrotation Zrotation
								JOINT LeftHand
								{
									OFFSET	-22.9751	-1.58771	1.63994
									CHANNELS 3  Xrotation Yrotation Zrotation
									End Site
									{
										OFFSET	-8.38477	-0.579434	0.598457
									}
								}
							}
						}
					}
					JOINT RightShoulder
					{
						OFFSET	4.26272	18.0376	-8.50571
						CHANNELS 3  Xrotation Yrotation Zrotation
						JOINT RightArm
						{
							OFFSET	9.26857	-2.54579	3.26613
							CHANNELS 3  Xrotation Yrotation Zrotation
							JOINT RightForeArm
							{
								OFFSET	28.2392	-1.28889	2.01568
								CHANNELS 3  Xrotation Yrotation Zrotation
								JOINT RightHand
								{
									OFFSET	22.9751	-1.58771	1.63994
									CHANNELS 3  Xrotation Yrotation Zrotation
									End Site
									{
										OFFSET	8.38477	-0.579434	0.598457
									}
								}
							}
						}
					}
				}
			}
		}
	}
	JOINT LeftUpLeg
	{
		OFFSET	-8.79432	-3.21518	-0.64796
		CHANNELS 3  Xrotation Yrotation Zrotation
		JOINT LeftLeg
		{
			OFFSET	-1.93242	-37.8649	-0.591911
			CHANNELS 3  Xrotation Yrotation Zrotation
			JOINT LeftFoot
			{
				OFFSET	-1.8889	-34.8184	2.99439
				CHANNELS 3  Xrotation Yrotation Zrotation
				JOINT LeftToeBase
				{
					OFFSET	0	-4.3392	-11.5249
					CHANNELS 3  Xrotation Yrotation Zrotation
					End Site
					{
						OFFSET	0	-1.73568	-6.94272
					}
				}
			}
		}
	}
	JOINT RightUpLeg
	{
		OFFSET	8.79432	-3.21518	-0.64796
		CHANNELS 3  Xrotation Yrotation Zrotation
		JOINT RightLeg
		{
			OFFSET	1.93242	-37.8649	-0.591911
			CHANNELS 3  Xrotation Yrotation Zrotation
			JOINT RightFoot
			{
				OFFSET	1.8889	-34.8184	2.99439
				CHANNELS 3  Xrotation Yrotation Zrotation
				JOINT RightToeBase
				{
					OFFSET	0	-4.3392	-11.5249
					CHANNELS 3  Xrotation Yrotation Zrotation
					End Site
					{
						OFFSET	0	-1.73568	-6.94272
					}
				}
			}
		}
	}
}
MOTION
Frames: 12
Frame Time: 0.020408
 0 -5.59411 3.22603 -0 0 -0 -0 0 -0 -0 0 -0 -0 0 -0 -0 0 -0 -0 0 -0 -0 0 -0 -0 0 -0 -0 0 -0 -0 0 -0 -0 0 -0 -0 0 -0 -0 0 -0 -0 0 -0 -0 0 -0 -0 0 -0 -0 0 -0 -0 0 -0 -0 0 -0 -0 0 -0 -0 0 -0 -0 0 -0 -0 0 -0 -0 0 -0
 212.42 66.2953 -233.709 156.407 -137.016 -102.325 179.998 -179.995 161.019 162.462 -179.991 148.365 161.024 -179.972 148.365 164.028 -179.995 161.019 4.12403 -0.456866 -6.31062 29.7568 9.09656 -11.3299 9.7456 28.3776 -4.06073 177.048 157.041 175.901 2.18312 10.6965 88.3755 147.876 -72.1833 147.271 -0 -41.0255 -28.3169 169.093 153.432 -155.739 66.991 -3.87804 -36.3793 120.117 149.435 -136.077 -0 -0.0909508 31.725 85.742 -0.406032 -89.5316 49.8823 -169.991 -179.452 27.464 -0.012393 10.7092 179.024 180 -180 163.617 -130.176 130.848 11.5975 -17.9645 -0.0458541 177.605 179.975 174.253 179.28 180 -180
 212.529 66.2717 -233.843 156.91 -136.805 -101.981 0.00579274 0.0168593 -18.9624 162.436 179.97 148.396 161.048 179.909 148.396 164.007 179.983 161.038 4.09441 -0.453136 -6.30461 29.7085 9.03918 -11.4021 9.73945 28.447 -4.09263 177.037 156.861 175.9 1.70494 10.3971 88.6231 146.193 -72.7434 145.534 -0 -40.9541 -28.336 169.088 153.376 -155.729 66.6274 -4.00544 -36.2983 120.122 149.51 -136.129 -0 0.0961872 31.6313 89.5853 0.0442366 -90 49.9471 -170.079 179.517 30.0887 0.0707877 10.7516 179.023 180 -180 163.43 -129.809 130.93 11.6109 -17.9327 -0.0107178 177.839 179.962 174.491 179.278 180 -180
 212.581 66.2656 -234.065 157.242 -137.005 -101.814 0.00541401 0.0157391 -18.9824 162.348 179.972 148.363 160.951 179.915 148.363 163.93 179.984 161.018 4.10738 -0.455054 -6.31116 29.8055 8.89355 -11.5606 9.79152 28.5618 -4.18037 177.04 156.854 175.906 1.78445 10.17 88.8962 145.447 -72.8569 144.84 -0 -40.9859 -28.3386 169.056 153.388 -155.653 66.2314 -4.17062 -36.0544 120.154 149.594 -136.158 -0 0.231655 31.5608 92.3985 -0.00165598 -90.0395 49.3423 -170.178 179.692 30.7919 0.106962 10.8618 179.029 180 -180 162.931 -129.238 131.197 11.6233 -17.9048 0.0504324 178.359 179.957 174.786 179.277 180 -180
 212.562 66.1726 -234.272 157.708 -136.822 -101.549 0.0143045 0.0415977 -18.9769 162.292 179.925 148.372 160.951 179.775 148.372 163.879 179.958 161.023 4.08919 -0.452909 -6.30946 29.8212 8.81713 -11.6874 9.81417 28.6995 -4.24356 177.381 157.121 176.358 2.6369 9.98587 89.2448 144.595 -73.0626 144.015 -0 -41.0518 -28.3471 168.936 153.556 -155.372 65.7001 -4.53356 -35.9487 119.914 149.39 -135.714 -0 0.329395 31.6893 98.1485 -2.21394 -92.3236 48.9262 -170.415 179.15 27.638 0.189536 10.8488 179.031 180 -180 162.401 -128.807 131.042 11.5479 -17.8511 -0.013276 178.775 179.919 175.037 179.275 180 -180
 212.023 66.0078 -234.073 157.085 -136.598 -102.9 0.00340254 0.0099659 -18.8508 162.335 179.982 148.582 160.911 179.946 148.582 163.882 179.99 161.149 4.20375 -0.462455 -6.26663 30.1023 8.90148 -11.6901 9.90743 28.765 -4.26365 177.43 157.066 176.431 3.92672 9.80961 88.9418 144.397 -73.0229 143.867 -0 -41.1479 -28.3513 168.694 153.433 -154.806 65.6441 -4.36622 -35.8509 119.793 149.094 -135.282 -0 0.349962 31.838 123.922 -2.78069 -90.0552 49.0927 -170.284 178.931 23.7281 0.0319011 10.856 179.029 180 -180 162.843 -128.039 131.649 11.5127 -17.9594 0.265584 178.694 -179.953 175.349 179.275 180 -180
 211.706 65.4593 -234.319 158.379 -136.432 -103.496 179.999 -179.996 161.329 162.269 -179.992 148.882 160.812 -179.977 148.882 163.836 -179.996 161.329 4.20492 -0.458131 -6.20677 30.1704 8.98602 -11.6102 9.91897 28.7068 -4.22795 177.539 156.959 176.591 4.65772 9.54434 89.1293 143.958 -73.119 143.501 -0 -41.1714 -28.2964 168.514 153.656 -154.38 65.561 -4.29697 -35.6841 119.801 148.932 -135.097 -0 0.305406 31.956 137.392 -0.0241747 -88.8753 49.8306 -170.285 -179.349 19.5473 -0.0445054 10.9318 179.028 180 -180 163.025 -127.496 132.595 11.5688 -17.9052 0.244374 179.637 -179.975 175.584 179.275 180 -180
 211.889 64.8758 -234.626 159.905 -136.207 -102.866 0.000428705 0.00127499 -18.5848 162.202 179.998 149.025 160.769 179.993 149.025 163.828 179.999 161.415 4.08907 -0.443464 -6.17909 29.9716 9.36488 -11.2801 9.81263 28.5404 -4.0404 177.499 157.178 176.519 5.5263 9.06411 88.877 143.411 -73.2253 142.981 -0 -41.137 -28.2334 168.434 153.757 -154.19 65.0759 -4.56505 -35.6064 119.955 148.822 -135.144 -0 0.285905 32.062 140.382 4.30548 -86.9424 52.6854 -170.424 -179.847 17.6292 0.0208758 10.8741 179.031 180 -180 162.648 -127.035 133.387 11.4635 -17.9013 -0.00888565 0.0498713 -0.00995198 -4.2233 179.274 180 -180
 211.895 64.7809 -234.596 159.857 -136.104 -102.829 0.00142948 0.00424776 -18.5995 162.278 179.992 149.001 160.862 179.977 149.001 163.91 179.996 161.401 4.03786 -0.438268 -6.18438 29.8103 9.69468 -11.0097 9.72788 28.4286 -3.88749 177.458 156.971 176.477 5.96739 8.65531 88.8817 142.656 -73.4231 142.159 -0 -41.1298 -28.1968 168.4 153.761 -154.109 64.8682 -4.72518 -35.6005 120.054 148.666 -135.108 -0 0.250438 32.1342 141.489 6.51289 -86.7377 54.4375 -170.484 179.329 17.502 0.0257539 10.7574 179.033 180 -180 162.165 -126.777 132.988 11.4752 -17.8612 -0.235509 0.159041 -0.000386619 -4.09144 179.274 180 -180
 211.783 64.9048 -234.403 159.29 -136.006 -103.341 0.00275991 0.00820422 -18.593 162.41 179.985 149.012 161.004 179.955 149.012 164 179.992 161.407 4.07332 -0.441956 -6.18196 29.8427 9.9982 -10.7189 9.70311 28.2365 -3.74274 177.493 156.892 176.531 6.22682 8.3109 89.1327 142.122 -73.5104 141.496 -0 -41.1232 -28.185 168.413 153.763 -154.14 65.1275 -4.95107 -35.7178 120.122 148.431 -135.037 -0 0.133398 32.3094 141.611 6.85386 -86.9529 55.5944 -170.525 179.46 18.3472 0.0117767 10.615 179.036 180 -180 161.783 -126.322 132.108 11.5259 -17.8635 -0.0122747 1.02413 -0.0186944 -3.96636 179.275 180 -180
 211.782 65.0763 -234.568 158.443 -135.684 -104.303 0.00239877 0.00715428 -18.5359 162.519 179.987 149.107 161.129 179.961 149.107 164.127 179.993 161.464 3.98492 -0.43104 -6.16362 29.5827 10.6458 -10.1694 9.55815 27.997 -3.44466 177.594 156.929 176.67 6.50015 7.91781 89.388 141.617 -73.6209 141.028 -0 -41.1317 -28.1611 168.474 153.734 -154.284 65.3323 -5.27998 -35.8094 120.193 148.203 -135.027 -0 0.0503652 32.4748 141.392 6.83783 -87.0804 56.6974 -170.733 179.656 18.6364 0.0457328 10.4136 179.037 180 -180 161.701 -126.076 131.994 11.4421 -17.8938 0.180536 2.16577 -0.0443919 -3.83894 179.277 180 -180
 211.623 65.1257 -234.684 157.946 -135.418 -104.733 0.000728393 0.00216419 -18.6015 162.595 179.996 148.997 161.183 179.988 148.997 164.145 179.998 161.398 4.09209 -0.444193 -6.18463 29.8789 11.0205 -9.84284 9.6166 27.7768 -3.29948 177.726 156.892 176.855 6.76885 7.58978 89.5417 140.837 -73.8548 140.229 -0 -41.1598 -28.1583 168.431 153.8 -154.183 65.7902 -5.12453 -35.8104 120.269 148.058 -135.092 -0 0.0334909 32.5864 141.14 6.92639 -87.1605 57.3835 -171.018 179.954 17.7966 0.0360027 10.2196 179.039 180 -180 161.645 -125.986 131.904 11.4494 -17.8683 0.227132 2.35407 -0.0407733 -3.72986 179.279 180 -180
